<mxfile host="Electron" agent="Mozilla/5.0 (X11; Linux x86_64) AppleWebKit/537.36 (KHTML, like Gecko) draw.io/24.7.8 Chrome/128.0.6613.36 Electron/32.0.1 Safari/537.36" version="24.7.8">
  <diagram name="Page-1" id="3eCYOFNRBkkUXtqOqpn4">
    <mxGraphModel dx="1434" dy="838" grid="1" gridSize="10" guides="1" tooltips="1" connect="1" arrows="1" fold="1" page="1" pageScale="1" pageWidth="1169" pageHeight="827" math="0" shadow="0">
      <root>
        <mxCell id="0" />
        <mxCell id="1" parent="0" />
        <mxCell id="R6lH3Mrmz2-amDCkaMuu-11" value="" style="rounded=0;whiteSpace=wrap;html=1;strokeColor=default;fillColor=#1e1e1e;" parent="1" vertex="1">
          <mxGeometry x="520" y="400" width="120" height="200" as="geometry" />
        </mxCell>
        <mxCell id="R6lH3Mrmz2-amDCkaMuu-2" value="Bottom" style="text;html=1;align=center;verticalAlign=middle;whiteSpace=wrap;rounded=0;" parent="1" vertex="1">
          <mxGeometry x="560" y="560" width="40" height="40" as="geometry" />
        </mxCell>
        <mxCell id="R6lH3Mrmz2-amDCkaMuu-3" value="Z" style="text;html=1;align=center;verticalAlign=middle;whiteSpace=wrap;rounded=0;" parent="1" vertex="1">
          <mxGeometry x="520" y="480" width="40" height="40" as="geometry" />
        </mxCell>
        <mxCell id="R6lH3Mrmz2-amDCkaMuu-4" value="NZ" style="text;html=1;align=center;verticalAlign=middle;whiteSpace=wrap;rounded=0;" parent="1" vertex="1">
          <mxGeometry x="600" y="480" width="40" height="40" as="geometry" />
        </mxCell>
        <mxCell id="R6lH3Mrmz2-amDCkaMuu-5" value="U" style="text;html=1;align=center;verticalAlign=middle;whiteSpace=wrap;rounded=0;" parent="1" vertex="1">
          <mxGeometry x="560" y="400" width="40" height="40" as="geometry" />
        </mxCell>
        <mxCell id="R6lH3Mrmz2-amDCkaMuu-6" value="" style="endArrow=none;html=1;rounded=0;entryX=0.25;entryY=1;entryDx=0;entryDy=0;exitX=0.5;exitY=0;exitDx=0;exitDy=0;" parent="1" source="R6lH3Mrmz2-amDCkaMuu-3" target="R6lH3Mrmz2-amDCkaMuu-5" edge="1">
          <mxGeometry width="50" height="50" relative="1" as="geometry">
            <mxPoint x="560" y="460" as="sourcePoint" />
            <mxPoint x="610" y="410" as="targetPoint" />
          </mxGeometry>
        </mxCell>
        <mxCell id="R6lH3Mrmz2-amDCkaMuu-7" value="" style="endArrow=none;html=1;rounded=0;entryX=0.75;entryY=1;entryDx=0;entryDy=0;exitX=0.5;exitY=0;exitDx=0;exitDy=0;" parent="1" source="R6lH3Mrmz2-amDCkaMuu-4" target="R6lH3Mrmz2-amDCkaMuu-5" edge="1">
          <mxGeometry width="50" height="50" relative="1" as="geometry">
            <mxPoint x="550" y="490" as="sourcePoint" />
            <mxPoint x="590" y="450" as="targetPoint" />
          </mxGeometry>
        </mxCell>
        <mxCell id="R6lH3Mrmz2-amDCkaMuu-9" value="" style="endArrow=none;html=1;rounded=0;exitX=0.5;exitY=1;exitDx=0;exitDy=0;entryX=0.25;entryY=0;entryDx=0;entryDy=0;" parent="1" source="R6lH3Mrmz2-amDCkaMuu-3" target="R6lH3Mrmz2-amDCkaMuu-2" edge="1">
          <mxGeometry width="50" height="50" relative="1" as="geometry">
            <mxPoint x="560" y="460" as="sourcePoint" />
            <mxPoint x="610" y="410" as="targetPoint" />
          </mxGeometry>
        </mxCell>
        <mxCell id="R6lH3Mrmz2-amDCkaMuu-10" value="" style="endArrow=none;html=1;rounded=0;exitX=0.75;exitY=0;exitDx=0;exitDy=0;entryX=0.5;entryY=1;entryDx=0;entryDy=0;" parent="1" source="R6lH3Mrmz2-amDCkaMuu-2" target="R6lH3Mrmz2-amDCkaMuu-4" edge="1">
          <mxGeometry width="50" height="50" relative="1" as="geometry">
            <mxPoint x="560" y="460" as="sourcePoint" />
            <mxPoint x="610" y="410" as="targetPoint" />
          </mxGeometry>
        </mxCell>
      </root>
    </mxGraphModel>
  </diagram>
</mxfile>
